<svg id="Capa_1" enable-background="new 0 0 512 512" height="512" viewBox="0 0 512 512" width="512" xmlns="http://www.w3.org/2000/svg"><g><path d="m491.816 25.914c0-14.289-11.555-25.914-25.757-25.914h-21.053c-14.203 0-25.757 11.625-25.757 25.914v428.595c0 .073.036.834.037.846.127 1.492.58 2.892 1.29 4.125l26.206 47.362c1.761 3.183 5.112 5.158 8.75 5.158s6.989-1.976 8.75-5.158l26.206-47.362c.71-1.233 1.164-2.633 1.29-4.125.001-.012.037-.772.037-.846.001-.004.001-428.595.001-428.595zm-52.567 0c0-3.261 2.583-5.914 5.757-5.914h21.053c3.175 0 5.757 2.653 5.757 5.914v418.584h-32.567zm16.283 455.431-9.322-16.847h18.644z"/><path d="m365.228.289-311.333-.278h-.031c-8.991 0-17.443 3.499-23.805 9.854-6.368 6.362-9.875 14.824-9.875 23.826v444.617c0 18.571 15.109 33.681 33.682 33.681h311.333c18.572 0 33.681-15.109 33.681-33.681v-444.338c0-18.557-15.096-33.665-33.652-33.681zm13.652 478.02c0 7.544-6.137 13.681-13.681 13.681h-311.333c-7.544 0-13.682-6.137-13.682-13.681v-444.618c0-3.656 1.425-7.094 4.011-9.678 2.584-2.582 6.017-4.003 9.669-4.003h.013l311.333.278c7.537.006 13.669 6.144 13.669 13.681v444.34z"/><path d="m344.889 44.27-270.696-.24h-.009c-2.65 0-5.193 1.053-7.068 2.926-1.877 1.876-2.932 4.421-2.932 7.074v370.119c0 5.522 4.477 10 10 10h270.696c5.523 0 10-4.478 10-10v-369.879c0-5.52-4.472-9.996-9.991-10zm-10.009 369.879h-250.695v-350.11l250.695.222z"/><path d="m113.915 238.986h191.234c3.854 0 7.366-2.216 9.026-5.694 1.66-3.479 1.171-7.603-1.254-10.599l-71.065-87.763c-1.898-2.345-4.754-3.707-7.771-3.707s-5.873 1.362-7.771 3.707l-35.04 43.272-13.287-13.287c-3.905-3.904-10.237-3.904-14.142 0l-57 56.999c-2.86 2.86-3.716 7.161-2.168 10.898 1.547 3.738 5.194 6.174 9.238 6.174zm57-52.857 14.07 14.069c2.004 2.004 4.767 3.047 7.594 2.915 2.831-.148 5.465-1.491 7.248-3.693l34.257-42.306 50.1 61.872h-146.126z"/><path d="m175.995 144.419c17.449 0 31.646-14.195 31.646-31.645s-14.196-31.646-31.646-31.646-31.645 14.196-31.645 31.646 14.195 31.645 31.645 31.645zm0-43.29c6.421 0 11.646 5.225 11.646 11.646s-5.224 11.645-11.646 11.645c-6.421 0-11.645-5.224-11.645-11.645s5.224-11.646 11.645-11.646z"/><path d="m302.255 268.632h-185.446c-5.523 0-10 4.478-10 10v96.603c0 5.522 4.477 10 10 10h185.447c5.523 0 10-4.478 10-10v-96.603c-.001-5.523-4.478-10-10.001-10zm-10 96.602h-165.446v-76.603h165.447v76.603z"/><path d="m218.213 452.681h-17.362c-5.523 0-10 4.478-10 10s4.477 10 10 10h17.362c5.523 0 10-4.478 10-10s-4.477-10-10-10z"/></g></svg>