<svg id="Capa_1" enable-background="new 0 0 512 512" height="512" viewBox="0 0 512 512" width="512" xmlns="http://www.w3.org/2000/svg"><g><path d="m470.701 101.528h-28.002l-14.029-33.848c-4.275-10.316-14.244-16.982-25.395-16.982h-294.551c-11.151 0-21.119 6.666-25.395 16.983l-14.028 33.848h-28.002c-22.772-.001-41.299 18.527-41.299 41.299v277.175c0 22.772 18.527 41.3 41.299 41.3h429.401c22.772 0 41.299-18.527 41.299-41.3v-277.175c.001-22.772-18.526-41.3-41.298-41.3zm-368.895-26.19c1.168-2.819 3.884-4.641 6.918-4.641h294.552c3.035 0 5.75 1.821 6.918 4.64l10.854 26.191h-330.097zm390.194 344.665c0 11.745-9.555 21.3-21.299 21.3h-137.901c48.211-27.001 80.87-78.594 80.87-137.671 0-86.939-70.73-157.67-157.67-157.67s-157.67 70.73-157.67 157.67c0 59.077 32.659 110.669 80.87 137.671h-137.901c-11.745 0-21.299-9.555-21.299-21.3v-277.175c0-11.745 9.555-21.3 21.299-21.3h429.401c11.745 0 21.299 9.555 21.299 21.3v277.175zm-236 21.3c-75.912 0-137.67-61.759-137.67-137.671 0-75.911 61.759-137.67 137.67-137.67s137.67 61.759 137.67 137.67c0 75.912-61.758 137.671-137.67 137.671z"/><path d="m256 197.653c-58.437 0-105.979 47.542-105.979 105.979s47.542 105.979 105.979 105.979 105.979-47.542 105.979-105.979-47.542-105.979-105.979-105.979zm0 191.958c-47.409 0-85.979-38.569-85.979-85.979s38.57-85.979 85.979-85.979 85.979 38.57 85.979 85.979-38.57 85.979-85.979 85.979z"/><path d="m256 253.313c-27.746 0-50.319 22.573-50.319 50.319s22.573 50.318 50.319 50.318 50.319-22.572 50.319-50.318-22.573-50.319-50.319-50.319zm0 80.638c-16.718 0-30.319-13.601-30.319-30.318s13.601-30.319 30.319-30.319 30.319 13.602 30.319 30.319-13.601 30.318-30.319 30.318z"/><path d="m461.276 142.005h-52.517c-5.523 0-10 4.478-10 10v37.021c0 5.522 4.477 10 10 10h52.517c5.523 0 10-4.478 10-10v-37.021c0-5.523-4.477-10-10-10zm-10 37.02h-32.517v-17.021h32.517z"/><path d="m103.241 162.005h-52.517c-5.523 0-10 4.478-10 10s4.477 10 10 10h52.517c5.523 0 10-4.478 10-10s-4.477-10-10-10z"/></g></svg>