<svg id="Capa_1" enable-background="new 0 0 511.976 511.976" height="512" viewBox="0 0 511.976 511.976" width="512" xmlns="http://www.w3.org/2000/svg"><g><path d="m455.4 359.048c-1.893-2.054-4.559-3.222-7.352-3.222s-5.459 1.168-7.352 3.222c-6.688 7.253-40.046 44.617-40.046 67.997 0 26.139 21.263 47.403 47.397 47.403s47.397-21.265 47.397-47.403c.002-23.38-33.356-60.744-40.044-67.997zm-7.351 95.4c-15.107 0-27.397-12.293-27.397-27.403 0-9.664 14.282-30.377 27.4-46.05 13.117 15.662 27.395 36.365 27.395 46.05-.001 15.11-12.291 27.403-27.398 27.403z"/><path d="m432.513 314.424c1.952 1.95 4.509 2.925 7.066 2.925 2.562 0 5.123-.979 7.075-2.934 3.903-3.907 3.899-10.239-.009-14.142l-148.733-148.54v-41.685c0-60.681-49.426-110.048-110.178-110.048s-110.177 49.367-110.177 110.048v127.7l-46.128 46.068c-9.608 9.596-14.899 22.354-14.899 35.927s5.291 26.332 14.899 35.927l141.637 141.455v.001c9.913 9.899 22.935 14.85 35.955 14.85 13.021 0 26.043-4.95 35.955-14.851l185.238-184.998zm-334.956-204.376c0-49.652 40.453-90.048 90.177-90.048s90.178 40.396 90.178 90.048v21.711l-40.048-39.996c-3.904-3.9-10.229-3.9-14.133 0l-126.174 126.011zm133.286 372.927c-12.031 12.016-31.609 12.019-43.645-.001v.001l-141.636-141.456c-5.825-5.816-9.032-13.55-9.032-21.775s3.207-15.958 9.032-21.775l185.236-184.997 47.114 47.053v86.948c0 5.522 4.478 10 10 10s10-4.478 10-10v-66.974l118.149 117.997z"/><path d="m95.193 288.335c-2.65 0-5.191 1.052-7.066 2.925l-21.436 21.408c-1.878 1.875-2.934 4.421-2.934 7.075s1.056 5.2 2.934 7.075l135.264 135.089c1.952 1.95 4.509 2.925 7.066 2.925s5.114-.975 7.066-2.925l156.698-156.497c2.862-2.858 3.721-7.161 2.174-10.899s-5.194-6.176-9.24-6.176zm113.828 152.364-121.112-120.956 11.423-11.408h242.223z"/></g></svg>