<svg id="Capa_1" enable-background="new 0 0 512 512" height="512" viewBox="0 0 512 512" width="512" xmlns="http://www.w3.org/2000/svg"><g><path d="m178.231 102.632 67.153 81.878c1.899 2.315 4.737 3.658 7.732 3.658h16.065c2.995 0 5.833-1.343 7.732-3.658l67.154-81.878c.135-.164.264-.333.388-.506 7.492-10.423 7.448-24.397-.107-34.773l-35.257-48.416c3.268-1.645 5.51-5.029 5.51-8.937 0-5.522-4.477-10-10-10h-86.905c-5.523 0-10 4.478-10 10 0 3.908 2.242 7.292 5.51 8.937l-35.256 48.416c-7.556 10.377-7.599 24.352-.107 34.774.124.172.254.341.388.505zm15.887-23.506 43.056-59.126h47.951l43.056 59.126c2.41 3.309 2.474 7.741.186 11.111l-63.916 77.931h-6.602l-63.916-77.931c-2.288-3.37-2.225-7.802.185-11.111z"/><path d="m261.149 123.292c18.022 0 32.684-14.71 32.684-32.792s-14.662-32.792-32.684-32.792-32.684 14.71-32.684 32.792 14.662 32.792 32.684 32.792zm0-45.584c6.994 0 12.684 5.738 12.684 12.792s-5.69 12.792-12.684 12.792-12.684-5.738-12.684-12.792 5.69-12.792 12.684-12.792z"/><path d="m448.767 376.24c-12.405-12.823-28.434-21.002-45.836-23.536-3.563-29.088-16.169-56.656-36.001-78.409-9.435-10.349-20.325-19.193-32.222-26.291h73.929c4.907 10.614 15.656 17.996 28.097 17.996 17.059 0 30.937-13.878 30.937-30.937 0-17.058-13.878-30.936-30.937-30.936-14.63 0-26.921 10.208-30.123 23.876h-115.339c-3.202-13.667-15.493-23.876-30.123-23.876s-26.921 10.208-30.123 23.876h-125.637c-3.202-13.667-15.493-23.876-30.123-23.876-17.059 0-30.937 13.878-30.937 30.936.001 17.059 13.879 30.937 30.937 30.937 12.441 0 23.19-7.382 28.097-17.996h86.182c-25.741 15.378-45.947 38.47-57.748 65.987-23.652 1.879-45.625 12.078-62.466 29.129-18.452 18.68-28.614 43.436-28.614 69.708 0 54.684 44.438 99.172 99.059 99.172h251.52c14.98 0 29.59-4.175 42.25-12.073 23.629-14.742 37.736-40.163 37.736-68.002 0-20.901-7.996-40.677-22.515-55.685zm-12.033-152.112c6.03 0 10.937 4.905 10.937 10.936s-4.907 10.936-10.937 10.936-10.936-4.906-10.936-10.937 4.906-10.935 10.936-10.935zm-175.585 0c6.03 0 10.936 4.905 10.936 10.936s-4.905 10.936-10.936 10.936-10.937-4.906-10.937-10.937 4.907-10.935 10.937-10.935zm-185.883 21.872c-6.03 0-10.937-4.906-10.937-10.937s4.906-10.936 10.937-10.936 10.936 4.905 10.936 10.936-4.906 10.937-10.936 10.937zm347.694 236.958c-9.481 5.915-20.43 9.042-31.664 9.042h-251.52c-43.593 0-79.059-35.517-79.059-79.172 0-43.119 35.029-78.625 78.085-79.147 4.125-.05 7.797-2.629 9.244-6.493 10.37-27.699 30.448-50.687 56.536-64.727 9.525-5.126 19.632-8.931 30.127-11.349 5.434 8.92 15.253 14.888 26.44 14.888 11.351 0 21.293-6.145 26.676-15.283 52.737 11.361 92.641 57.371 95.928 111.791.311 5.147 4.484 9.214 9.637 9.392 32.463 1.12 57.892 27.486 57.892 60.025 0 20.891-10.588 39.969-28.322 51.033z"/></g></svg>