<svg id="Capa_1" enable-background="new 0 0 512 512" height="512" viewBox="0 0 512 512" width="512" xmlns="http://www.w3.org/2000/svg"><g><path d="m225.726 238.692c-1.898-2.345-4.754-3.707-7.771-3.707s-5.873 1.362-7.771 3.707l-50.287 62.103-20.957-20.957c-1.875-1.875-4.419-2.929-7.071-2.929s-5.196 1.054-7.071 2.929l-77.68 77.68c-2.86 2.86-3.715 7.161-2.167 10.898 1.548 3.736 5.194 6.173 9.239 6.173h260.614c3.854 0 7.366-2.216 9.026-5.694 1.66-3.479 1.171-7.603-1.254-10.599zm-147.395 115.897 53.538-53.537 21.739 21.739c2.004 2.004 4.771 3.068 7.595 2.915 2.83-.148 5.465-1.491 7.248-3.693l49.505-61.137 75.883 93.713z"/><path d="m138.791 245.712c21.78 0 39.499-17.719 39.499-39.498s-17.719-39.498-39.499-39.498c-21.779 0-39.498 17.719-39.498 39.498s17.718 39.498 39.498 39.498zm0-58.996c10.751 0 19.499 8.747 19.499 19.498s-8.747 19.498-19.499 19.498-19.498-8.747-19.498-19.498 8.746-19.498 19.498-19.498z"/><path d="m465.71 54.977h-419.42c-25.525 0-46.29 20.955-46.29 46.711v308.623c0 25.757 20.765 46.712 46.29 46.712h419.42c25.524 0 46.29-20.955 46.29-46.712v-308.623c0-25.756-20.766-46.711-46.29-46.711zm26.29 46.711v7.003c-7.472-5.221-16.533-8.283-26.29-8.283h-243.501c-.253-9.437-3.292-18.184-8.316-25.432h251.817c14.497.001 26.29 11.983 26.29 26.712zm-26.29 335.335h-419.42c-14.496 0-26.29-11.982-26.29-26.712v-308.623c0-14.729 11.793-26.712 26.29-26.712h129.647c14.496 0 26.29 11.982 26.29 26.712v8.72c0 5.522 4.477 10 10 10h253.483c14.496 0 26.29 11.982 26.29 26.712v19.596h-133.809c-5.523 0-10 4.478-10 10v187.873c0 5.522 4.477 10 10 10h133.809v35.723c0 14.729-11.793 26.711-26.29 26.711zm26.29-82.434h-123.809v-167.873h123.809z"/></g></svg>