<svg id="Capa_1" enable-background="new 0 0 512 512" height="512" viewBox="0 0 512 512" width="512" xmlns="http://www.w3.org/2000/svg"><path d="m413.422 199.328c2.922-12.218 4.299-24.007 4.299-36.53.001-89.767-72.547-162.798-161.721-162.798s-161.722 73.031-161.722 162.798c0 12.523 1.377 24.311 4.299 36.53-57.888 24.808-98.577 82.648-98.577 149.874 0 89.767 72.548 162.798 161.722 162.798 35.151 0 67.719-11.348 94.278-30.596 26.559 19.248 59.127 30.596 94.278 30.596 89.174 0 161.722-73.031 161.722-162.798 0-67.226-40.689-125.066-98.578-149.874zm-109.979 149.874c0 42.298-18.347 80.36-47.443 106.53-29.096-26.171-47.443-64.232-47.443-106.53 0-10.204 1.068-20.162 3.097-29.766 14.259 4.074 29.136 6.159 44.346 6.159 15.206 0 30.084-2.086 44.346-6.162 2.029 9.605 3.097 19.564 3.097 29.769zm-47.443-43.606c-13.326 0-26.362-1.924-38.795-5.537 8.114-22.237 21.571-41.895 38.795-57.386 17.267 15.531 30.749 35.25 38.857 57.557-12.392 3.509-25.435 5.366-38.857 5.366zm-57.557-12.467c-34.416-15.552-62.243-44.616-75.578-81.268 12.352-3.553 25.388-5.456 38.857-5.456 28.919 0 55.842 8.773 78.287 23.816-18.357 17.25-32.731 38.742-41.566 62.908zm73.548-62.909c22.445-15.043 49.368-23.816 78.287-23.816 13.472 0 26.511 1.904 38.866 5.459-13.451 37.257-40.979 66.207-75.481 81.558-8.825-24.284-23.241-45.88-41.672-63.201zm-157.713-67.422c0-78.739 63.576-142.798 141.722-142.798s141.722 64.059 141.722 142.798c0 10.19-1.05 19.842-3.267 29.78-14.047-4.02-28.866-6.173-44.176-6.173-35.151 0-67.719 11.348-94.278 30.596-26.559-19.248-59.127-30.596-94.278-30.596-15.31 0-30.129 2.153-44.176 6.173-2.219-9.938-3.269-19.59-3.269-29.78zm47.444 329.202c-78.146 0-141.722-64.059-141.722-142.798 0-58.075 34.585-108.163 84.092-130.454 10.63 29.128 29.696 55.123 54.412 73.949 10.672 8.129 22.124 14.81 34.156 19.978-2.685 11.746-4.104 23.973-4.104 36.527 0 46.908 19.811 89.246 51.452 118.982-22.444 15.043-49.367 23.816-78.286 23.816zm188.556 0c-28.919 0-55.842-8.773-78.287-23.816 31.641-29.736 51.452-72.074 51.452-118.982 0-12.555-1.42-24.783-4.105-36.53 11.888-5.106 23.209-11.688 33.771-19.683 24.891-18.842 44.117-44.964 54.799-74.24 49.507 22.291 84.092 72.379 84.092 130.453 0 78.739-63.576 142.798-141.722 142.798z"/></svg>