<svg id="Capa_1" enable-background="new 0 0 512 512" height="512" viewBox="0 0 512 512" width="512" xmlns="http://www.w3.org/2000/svg"><path d="m386.981 250.166v-82.678c0-23.417-19.052-42.469-42.469-42.469h-82.549v-115.019c0-5.522-4.478-10-10-10h-241.963c-5.523 0-10 4.478-10 10v241.964c0 5.522 4.477 10 10 10h115.018v82.549c0 23.417 19.051 42.469 42.469 42.469h82.679c3.075 69.457 60.545 125.018 130.748 125.018h.208c72.166 0 130.878-58.712 130.878-130.878v-.208c0-70.203-55.561-127.673-125.019-130.748zm-366.981-8.202v-221.964h221.963v105.019h-74.477c-23.417 0-42.469 19.052-42.469 42.469v74.477h-105.017zm125.018 102.549v-177.026c0-12.39 10.08-22.469 22.469-22.469h177.026c12.39 0 22.469 10.079 22.469 22.469v83.286c-61.062 6.491-109.717 55.147-116.208 116.208h-83.286c-12.39 0-22.47-10.079-22.47-22.468zm346.982 36.609c0 61.139-49.739 110.878-110.878 110.878h-.208c-61.139 0-110.878-49.739-110.878-110.878v-.208c0-61.139 49.739-110.878 110.878-110.878h.208c61.139 0 110.878 49.739 110.878 110.878z"/></svg>