<svg id="Capa_1" enable-background="new 0 0 512 512" height="512" viewBox="0 0 512 512" width="512" xmlns="http://www.w3.org/2000/svg"><g><path d="m411.703.278-311.347-.278h-.031c-8.99 0-17.444 3.499-23.805 9.854-6.369 6.363-9.876 14.825-9.876 23.828v444.635c0 18.572 15.11 33.683 33.683 33.683h311.347c18.572 0 33.682-15.11 33.682-33.683v-444.356c0-18.556-15.097-33.666-33.653-33.683zm13.653 478.039c0 7.545-6.138 13.683-13.682 13.683h-311.347c-7.544 0-13.683-6.138-13.683-13.683v-444.634c0-3.657 1.425-7.095 4.012-9.68 2.584-2.582 6.018-4.003 9.67-4.003h.013l311.347.278c7.537.007 13.67 6.145 13.67 13.683z"/><path d="m383.544 47.523h-255.087c-5.523 0-10 4.478-10 10v117.069c0 5.522 4.477 10 10 10h255.087c5.522 0 10-4.478 10-10v-117.069c0-5.522-4.477-10-10-10zm-10 110.992-200.131-90.992h200.131zm-235.087-84.914 200.133 90.992h-200.133z"/><path d="m214.743 222.736h-86.286c-5.523 0-10 4.478-10 10v96.286c0 5.522 4.477 10 10 10h86.286c5.523 0 10-4.478 10-10v-96.286c0-5.522-4.477-10-10-10zm-10 96.286h-66.286v-76.286h66.286z"/><path d="m383.544 245.561h-122.075c-5.523 0-10 4.478-10 10s4.477 10 10 10h122.075c5.522 0 10-4.478 10-10s-4.477-10-10-10z"/><path d="m383.544 296.198h-122.075c-5.523 0-10 4.478-10 10s4.477 10 10 10h122.075c5.522 0 10-4.478 10-10s-4.477-10-10-10z"/><path d="m383.544 352.861h-126.289c-5.523 0-10 4.478-10 10v96.287c0 5.522 4.477 10 10 10h126.289c5.522 0 10-4.478 10-10v-96.287c0-5.522-4.477-10-10-10zm-10 96.287h-106.289v-76.287h106.289z"/><path d="m210.53 426.323h-82.073c-5.523 0-10 4.478-10 10s4.477 10 10 10h82.073c5.523 0 10-4.478 10-10s-4.477-10-10-10z"/><path d="m210.53 375.687h-82.073c-5.523 0-10 4.478-10 10s4.477 10 10 10h82.073c5.523 0 10-4.478 10-10s-4.477-10-10-10z"/></g></svg>