<svg id="Capa_1" enable-background="new 0 0 512 512" height="512" viewBox="0 0 512 512" width="512" xmlns="http://www.w3.org/2000/svg"><path d="m430.821 59.271c-1.877-1.884-4.426-2.942-7.085-2.942s-5.208 1.059-7.085 2.942l-22.32 22.406c-41.874-38.102-97.523-61.329-158.598-61.329-130.192 0-235.733 105.541-235.733 235.733s105.541 235.733 235.733 235.733c126.868 0 230.31-100.225 235.51-225.815h30.757c5.522 0 10-4.478 10-10 0-74.311-28.83-144.179-81.179-196.728zm-186.032-18.691c16.903.771 43.058 3.976 72.403 16.206 29.21 12.173 49.833 28.392 62.271 39.814l-12.428 12.476-27.011 27.115c-25.531-23.242-58.704-38.173-95.235-40.492zm84.111 205.42c-1.703-18.392-8.608-35.719-20.014-50.211l30.889-31.008c18.504 22.233 30.148 50.41 31.636 81.219zm42.041 20.001c-2.865 29.875-15.302 56.983-34.186 78.188l-5.846-5.87-22.875-22.963c11.482-14.178 18.612-31.204 20.666-49.355zm-75.978-84.576c-14.319-12.008-31.66-19.461-50.173-21.577v-44.102c31.034 2.262 59.23 14.968 81.11 34.624zm-70.173-140.845v55.12c-36.531 2.319-69.704 17.25-95.235 40.492l-39.44-39.592c27.281-25.49 74.489-53.446 134.675-56.02zm-91.966 303.608c-18.883-21.204-31.32-48.313-34.186-78.188h40.326c2.104 18.603 9.542 36.025 21.532 50.409zm41.99-13.813c14.428 11.424 31.67 18.343 49.976 20.057v39.283c-29.408-2.144-56.267-13.664-77.618-31.59zm-36.055-84.375h-40.591c1.488-30.809 13.132-58.986 31.636-81.219l29.823 29.937c-11.925 14.704-19.127 32.407-20.868 51.282zm4.921-95.63c21.879-19.656 50.076-32.361 81.11-34.624v43.897c-18.786 1.751-36.404 8.969-51.043 20.911zm-67.679-39.599 39.64 39.792c-22.097 25.918-35.963 59.104-37.494 95.437h-57.918c1.364-57.264 32.419-110.67 55.772-135.229zm-40.008 227.038c-11.856-29.031-15.009-54.882-15.764-71.809h58.329c2.959 35.398 17.645 67.501 40.136 92.372l-42.692 42.856c-11.516-12.668-27.867-33.688-40.009-63.419zm188.798 133.611c-17.496-.808-44.88-4.216-75.404-17.487-27.361-11.896-46.975-27.253-59.271-38.533l42.903-43.068c25.035 21.488 56.871 35.214 91.772 37.429zm9.041-140.686c-41.838 0-75.755-33.917-75.755-75.755s33.917-75.755 75.755-75.755 75.755 33.917 75.755 75.755-33.916 75.755-75.755 75.755zm60.08-1.214 28.496 28.605c-21.351 17.926-48.21 29.446-77.617 31.59v-39.487h-.001c18.064-2.064 35.009-9.208 49.122-20.708zm22.334 126.087c-28.887 11.876-54.627 15.045-71.456 15.814v-61.659c34.9-2.215 66.736-15.942 91.771-37.429l11.679 11.724 31.224 31.344c-12.562 11.533-33.501 27.988-63.218 40.206zm116.951-116.847c-12.093 29.212-28.204 49.913-39.62 62.468l-42.691-42.855c22.491-24.871 37.177-56.974 40.135-92.373h58.329c-.757 17.019-3.949 43.281-16.153 72.76zm-41.765-92.76c-1.531-36.333-15.397-69.519-37.494-95.436l69.663-69.931c41.933 45.423 65.88 103.477 68.21 165.367z"/></svg>