<svg id="Capa_1" enable-background="new 0 0 512 512" height="512" viewBox="0 0 512 512" width="512" xmlns="http://www.w3.org/2000/svg"><g><path d="m295.451 164.052c-1.898-2.345-4.754-3.707-7.771-3.707s-5.873 1.362-7.771 3.707l-47.24 58.34-19.424-19.425c-1.875-1.875-4.419-2.929-7.071-2.929s-5.196 1.054-7.071 2.929l-73.547 73.548c-2.86 2.86-3.715 7.161-2.167 10.898 1.548 3.736 5.194 6.173 9.239 6.173h246.751c3.854 0 7.366-2.216 9.026-5.694 1.66-3.479 1.171-7.603-1.254-10.599zm-138.684 109.534 49.405-49.405 20.207 20.207c2.005 2.005 4.767 3.058 7.595 2.915 2.83-.148 5.465-1.491 7.248-3.693l46.458-57.374 70.731 87.351h-201.644z"/><path d="m212.726 171.564c20.914 0 37.929-17.015 37.929-37.929s-17.015-37.93-37.929-37.93-37.929 17.016-37.929 37.93 17.015 37.929 37.929 37.929zm0-55.858c9.886 0 17.929 8.043 17.929 17.93 0 9.886-8.043 17.929-17.929 17.929s-17.929-8.043-17.929-17.929c0-9.887 8.043-17.93 17.929-17.93z"/><path d="m478.227 48.507h-444.454c-18.623 0-33.773 15.15-33.773 33.773v303.081c0 18.623 15.15 33.773 33.773 33.773h129.367v24.358h-49.531c-5.523 0-10 4.478-10 10s4.477 10 10 10h284.782c5.523 0 10-4.478 10-10s-4.477-10-10-10h-49.531v-24.358h129.367c18.623 0 33.773-15.15 33.773-33.773v-303.081c0-18.623-15.15-33.773-33.773-33.773zm-75.546 350.628h-293.362v-64.742h293.361v64.742zm-73.821 44.358h-145.72v-24.358h145.72zm163.14-58.132c0 7.595-6.179 13.773-13.773 13.773h-55.546v-74.742c0-5.522-4.477-10-10-10h-313.362c-5.523 0-10 4.478-10 10v74.742h-55.546c-7.594 0-13.773-6.179-13.773-13.773v-303.081c0-7.595 6.179-13.773 13.773-13.773h444.454c7.594 0 13.773 6.179 13.773 13.773z"/></g></svg>